<svg width="114" height="37" viewBox="0 0 114 37" fill="none" xmlns="http://www.w3.org/2000/svg">
<path d="M63.7865 16V2.96509H61.465V8.38501H55.1237V2.96509H52.7931V16H55.1237V10.3452H61.465V16H63.7865ZM70.1007 16.1897C72.91 16.1897 74.7347 14.3198 74.7347 11.2124C74.7347 8.11401 72.892 6.22607 70.1007 6.22607C67.3094 6.22607 65.4667 8.12305 65.4667 11.2124C65.4667 14.3198 67.2914 16.1897 70.1007 16.1897ZM70.1007 14.4102C68.6735 14.4102 67.7521 13.2539 67.7521 11.2124C67.7521 9.17993 68.6825 8.01465 70.1007 8.01465C71.528 8.01465 72.4493 9.17993 72.4493 11.2124C72.4493 13.2539 71.528 14.4102 70.1007 14.4102ZM76.2433 16H78.4926V2.96509H76.2433V16ZM83.9847 16.1536C85.3849 16.1536 86.4869 15.4399 87.0109 14.365H87.047V16H89.2511V2.96509H87.0018V8.03271H86.9476C86.4418 6.97583 85.3578 6.26221 83.9847 6.26221C81.5729 6.26221 80.0101 8.17725 80.0101 11.2034C80.0101 14.2476 81.5729 16.1536 83.9847 16.1536ZM84.6622 8.11401C86.0804 8.11401 87.0109 9.3335 87.0109 11.2124C87.0109 13.1094 86.0804 14.3108 84.6622 14.3108C83.2079 14.3108 82.3136 13.1184 82.3136 11.2124C82.3136 9.31543 83.2169 8.11401 84.6622 8.11401ZM52.2511 30.3596C52.3595 32.7444 54.3558 34.2168 57.3729 34.2168C60.5074 34.2168 62.4677 32.645 62.4677 30.1519C62.4677 28.2188 61.3204 27.1167 58.5743 26.5476L57.1652 26.2585C55.5392 25.9153 54.8888 25.3462 54.8888 24.4609C54.8888 23.3679 55.9186 22.6814 57.3639 22.6814C58.8544 22.6814 59.8842 23.4221 59.9926 24.6506H62.2238C62.1696 22.3201 60.2635 20.7483 57.382 20.7483C54.5546 20.7483 52.5402 22.302 52.5402 24.5964C52.5402 26.5024 53.7596 27.731 56.3702 28.2639L57.7704 28.553C59.4686 28.9053 60.119 29.4834 60.119 30.4229C60.119 31.5068 59.026 32.2837 57.4542 32.2837C55.8282 32.2837 54.6539 31.561 54.4823 30.3596H52.2511ZM70.3265 31.1365C70.0826 31.9314 69.2877 32.4553 68.2399 32.4553C66.7675 32.4553 65.828 31.4255 65.828 29.8899V29.7544H72.5216V29.0227C72.5216 26.114 70.8234 24.2261 68.1044 24.2261C65.3402 24.2261 63.5878 26.2224 63.5878 29.2485C63.5878 32.3018 65.3221 34.1897 68.1947 34.1897C70.462 34.1897 72.1422 32.9431 72.4313 31.1365H70.3265ZM68.1134 25.9695C69.4052 25.9695 70.2723 26.918 70.3175 28.2729H65.8461C65.9364 26.936 66.8488 25.9695 68.1134 25.9695ZM73.976 34H76.2252V28.4265C76.2252 27.0806 76.993 26.2585 78.2667 26.2585C78.6461 26.2585 78.9894 26.3127 79.1791 26.385V24.3525C79.0165 24.3164 78.7635 24.2622 78.4745 24.2622C77.3453 24.2622 76.5052 24.9307 76.1801 26.0959H76.1349V24.4248H73.976V34ZM88.7633 24.4248H86.4147L84.1925 31.9133H84.1473L81.9252 24.4248H79.5223L82.9188 34H85.3939L88.7633 24.4248ZM90.9764 22.9795C91.663 22.9795 92.205 22.4285 92.205 21.76C92.205 21.0825 91.663 20.5405 90.9764 20.5405C90.2899 20.5405 89.7389 21.0825 89.7389 21.76C89.7389 22.4285 90.2899 22.9795 90.9764 22.9795ZM89.8563 34H92.1056V24.4248H89.8563V34ZM102.431 27.8394C102.277 25.825 100.714 24.2261 98.1849 24.2261C95.4027 24.2261 93.5961 26.1501 93.5961 29.2124C93.5961 32.3198 95.4027 34.1897 98.203 34.1897C100.606 34.1897 102.259 32.7805 102.44 30.6396H100.317C100.109 31.7236 99.3683 32.374 98.2301 32.374C96.8029 32.374 95.8815 31.2178 95.8815 29.2124C95.8815 27.2432 96.7938 26.0508 98.212 26.0508C99.4135 26.0508 100.127 26.8186 100.308 27.8394H102.431ZM110.127 31.1365C109.883 31.9314 109.088 32.4553 108.04 32.4553C106.568 32.4553 105.628 31.4255 105.628 29.8899V29.7544H112.322V29.0227C112.322 26.114 110.624 24.2261 107.905 24.2261C105.141 24.2261 103.388 26.2224 103.388 29.2485C103.388 32.3018 105.122 34.1897 107.995 34.1897C110.262 34.1897 111.943 32.9431 112.232 31.1365H110.127ZM107.914 25.9695C109.205 25.9695 110.073 26.918 110.118 28.2729H105.646C105.737 26.936 106.649 25.9695 107.914 25.9695Z" fill="url(#paint0_linear)"/>
<g clip-path="url(#clip0)">
<path d="M23.9441 18.1527L21.734 20.3629L21.7339 20.3628L6.46742 5.09625L7.6407 3.92297L2.7757 0.00195312L0 2.77765L3.92101 7.64259L5.09436 6.4693L20.3609 21.7359L18.1508 23.946L21.3028 27.098L27.096 21.3047L23.9441 18.1527Z" fill="url(#paint1_linear)"/>
<path d="M28.4699 22.6777L22.6766 28.471L26.1525 31.9468C26.9262 32.7205 27.9549 33.1466 29.0492 33.1466C30.1433 33.1466 31.172 32.7205 31.9458 31.9468C33.543 30.3496 33.543 27.7508 31.9458 26.1536L28.4699 22.6777Z" fill="url(#paint2_linear)"/>
<path d="M16.7755 20.8962L12.2504 16.3711L8.9375 19.6836C6.50406 18.921 3.84857 19.558 2.01718 21.39C0.716631 22.6906 0 24.4196 0 26.2595C0 28.0987 0.716631 29.8284 2.01718 31.129C3.35981 32.4716 5.12323 33.1429 6.88665 33.1429C8.65007 33.1429 10.4141 32.4716 11.7561 31.129C13.5882 29.2976 14.2252 26.6421 13.4626 24.2087L16.7755 20.8962ZM8.46298 27.8351C7.59227 28.7058 6.18102 28.7058 5.31097 27.8351C4.44026 26.9651 4.44026 25.5538 5.31097 24.6831C6.18102 23.813 7.59227 23.813 8.46298 24.6831C9.33303 25.5538 9.33303 26.9651 8.46298 27.8351Z" fill="url(#paint3_linear)"/>
<path d="M32.6944 4.15371L32.1532 2.77159L28.6788 6.24599L27.2759 5.86987L26.8998 4.46703L30.3742 0.993282L28.9921 0.451439C26.569 -0.497595 23.8151 0.0772637 21.976 1.91642C20.2915 3.60086 19.6675 6.05372 20.3045 8.31625L16.37 12.2512L20.8951 16.7763L24.8295 12.8413C25.4135 13.0058 26.009 13.086 26.6014 13.086C28.3059 13.0854 29.9793 12.4199 31.2294 11.1698C33.0685 9.33074 33.6434 6.57685 32.6944 4.15371Z" fill="url(#paint4_linear)"/>
</g>
<defs>
<linearGradient id="paint0_linear" x1="62.8113" y1="-3.26297" x2="98.5629" y2="47.4123" gradientUnits="userSpaceOnUse">
<stop offset="0.387" stop-color="#7638FF"/>
<stop offset="0.944" stop-color="#5445FF"/>
</linearGradient>
<linearGradient id="paint1_linear" x1="4.90605" y1="-2.3876" x2="32.3364" y2="20.9408" gradientUnits="userSpaceOnUse">
<stop offset="0.387" stop-color="#7638FF"/>
<stop offset="0.944" stop-color="#5445FF"/>
</linearGradient>
<linearGradient id="paint2_linear" x1="24.5718" y1="21.7545" x2="35.1696" y2="30.7659" gradientUnits="userSpaceOnUse">
<stop offset="0.387" stop-color="#7638FF"/>
<stop offset="0.944" stop-color="#5445FF"/>
</linearGradient>
<linearGradient id="paint3_linear" x1="3.0374" y1="14.892" x2="20.0168" y2="29.3355" gradientUnits="userSpaceOnUse">
<stop offset="0.387" stop-color="#7638FF"/>
<stop offset="0.944" stop-color="#5445FF"/>
</linearGradient>
<linearGradient id="paint4_linear" x1="19.4074" y1="-1.47947" x2="36.3906" y2="12.9637" gradientUnits="userSpaceOnUse">
<stop offset="0.387" stop-color="#7638FF"/>
<stop offset="0.944" stop-color="#5445FF"/>
</linearGradient>
<clipPath id="clip0">
<rect width="33.1458" height="33.1458" fill="white"/>
</clipPath>
</defs>
</svg>
