<svg width="80" height="80" viewBox="0 0 80 80" fill="none" xmlns="http://www.w3.org/2000/svg">
<path d="M54.2188 28.4375C40.003 28.4375 28.4375 40.003 28.4375 54.2188C28.4375 68.4345 40.003 80 54.2188 80C68.4345 80 80 68.4345 80 54.2188C80 40.003 68.4345 28.4375 54.2188 28.4375ZM54.2188 51.875C58.0959 51.875 61.25 55.0291 61.25 58.9062C61.25 61.9578 59.2847 64.535 56.5625 65.5058V70.625H51.875V65.5058C49.1528 64.535 47.1875 61.9578 47.1875 58.9062H51.875C51.875 60.1994 52.9256 61.25 54.2188 61.25C55.5119 61.25 56.5625 60.1994 56.5625 58.9062C56.5625 57.6131 55.5119 56.5625 54.2188 56.5625C50.3416 56.5625 47.1875 53.4084 47.1875 49.5312C47.1875 46.4797 49.1528 43.9025 51.875 42.9317V37.8125H56.5625V42.9317C59.2847 43.9025 61.25 46.4797 61.25 49.5312H56.5625C56.5625 48.2381 55.5119 47.1875 54.2188 47.1875C52.9256 47.1875 51.875 48.2381 51.875 49.5312C51.875 50.8244 52.9256 51.875 54.2188 51.875Z" fill="url(#paint0_linear)"/>
<path d="M26.0938 28.4375C40.55 28.4375 51.875 22.26 51.875 14.375C51.875 6.49 40.55 0 26.0938 0C11.6375 0 0 6.49 0 14.375C0 22.26 11.6375 28.4375 26.0938 28.4375Z" fill="url(#paint1_linear)"/>
<path d="M0 52.7439V56.5628C0 64.4478 11.6375 70.6253 26.0938 70.6253C26.9137 70.6253 27.7083 70.5498 28.5156 70.5103C26.7178 67.6836 25.377 64.547 24.5875 61.1939C14.1336 60.9053 5.05656 57.693 0 52.7439Z" fill="url(#paint2_linear)"/>
<path d="M23.8627 56.4434C23.8089 55.7062 23.75 54.9698 23.75 54.219C23.75 51.7758 24.0702 49.4111 24.6161 47.1326C14.1492 46.849 5.06109 43.635 0 38.6814V42.5003C0 49.967 10.5097 55.835 23.8627 56.4434Z" fill="url(#paint3_linear)"/>
<path d="M26.0937 42.5003C26.0962 42.5003 26.0983 42.5 26.1009 42.5C27.6467 38.8056 29.8937 35.4753 32.6842 32.685C30.5675 32.9525 28.38 33.1253 26.0937 33.1253C14.9661 33.1253 5.30094 29.807 0 24.6189V28.4378C0 36.3228 11.6375 42.5003 26.0937 42.5003Z" fill="url(#paint4_linear)"/>
<defs>
<linearGradient id="paint0_linear" x1="37.7735" y1="23.8903" x2="89.9723" y2="68.2832" gradientUnits="userSpaceOnUse">
<stop offset="0.387" stop-color="#7638FF"/>
<stop offset="0.944" stop-color="#5445FF"/>
</linearGradient>
<linearGradient id="paint1_linear" x1="9.39257" y1="-2.50786" x2="35.9566" y2="38.7032" gradientUnits="userSpaceOnUse">
<stop offset="0.387" stop-color="#7638FF"/>
<stop offset="0.944" stop-color="#5445FF"/>
</linearGradient>
<linearGradient id="paint2_linear" x1="5.16308" y1="51.167" x2="22.6834" y2="74.9287" gradientUnits="userSpaceOnUse">
<stop offset="0.387" stop-color="#7638FF"/>
<stop offset="0.944" stop-color="#5445FF"/>
</linearGradient>
<linearGradient id="paint3_linear" x1="4.45703" y1="37.115" x2="22.4313" y2="58.3001" gradientUnits="userSpaceOnUse">
<stop offset="0.387" stop-color="#7638FF"/>
<stop offset="0.944" stop-color="#5445FF"/>
</linearGradient>
<linearGradient id="paint4_linear" x1="5.91785" y1="23.042" x2="22.6074" y2="48.9858" gradientUnits="userSpaceOnUse">
<stop offset="0.387" stop-color="#7638FF"/>
<stop offset="0.944" stop-color="#5445FF"/>
</linearGradient>
</defs>
</svg>
