<svg width="82" height="82" viewBox="0 0 82 82" fill="none" xmlns="http://www.w3.org/2000/svg">
<path d="M53.9204 54.8934C54.1105 52.8948 54.053 50.9035 53.7641 48.9594L58.2581 46.9564C57.8336 44.7794 57.1659 42.6319 56.2403 40.5537C55.3147 38.4769 54.165 36.5446 52.8326 34.7715L48.3357 36.7731C47.0843 35.2594 45.6428 33.8857 44.0304 32.6888L45.7932 28.0961C43.9523 26.858 41.9625 25.8115 39.8386 24.9965C37.7235 24.1843 35.5509 23.6228 33.3415 23.3118L31.5772 27.9089C29.5786 27.7188 27.5873 27.7763 25.6432 28.0652L23.652 23.5933C19.2037 24.4673 15.0472 26.3539 11.4789 29.0497L13.4569 33.4921C11.9402 34.7435 10.5665 36.1864 9.3697 37.7974L4.78876 36.0405C3.53888 37.877 2.49092 39.8683 1.67437 41.9907C0.86519 44.1132 0.310997 46.2916 0 48.4863L4.59273 50.2491C4.4026 52.2477 4.46008 54.239 4.74897 56.1831L0.254988 58.1847C0.679477 60.3631 1.34716 62.5092 2.27278 64.5874C3.19988 66.6656 4.34806 68.5965 5.68196 70.3696L10.1759 68.368C11.4273 69.8832 12.8688 71.2569 14.4827 72.4537L12.7199 77.0494C14.5608 78.2889 16.5506 79.334 18.6746 80.149C20.7896 80.9612 22.9622 81.5227 25.1716 81.8337L26.9359 77.2366C28.9345 77.4252 30.9258 77.3677 32.8699 77.0789L34.8611 81.5493C39.3094 80.6752 43.4688 78.7886 47.0357 76.0928L45.0562 71.6504C46.5714 70.3991 47.9466 68.9576 49.1434 67.3451L53.7214 69.102C54.9713 67.2655 56.0192 65.2742 56.8358 63.1533C57.6509 61.0308 58.2036 58.8509 58.5146 56.6548L53.9204 54.8934ZM41.7119 57.3505C39.0721 64.2307 31.3561 67.6649 24.4744 65.0252C17.6015 62.3868 14.1629 54.6723 16.8012 47.7936C19.441 40.9148 27.157 37.4806 34.0343 40.1174C40.913 42.7557 44.3502 50.4731 41.7119 57.3505Z" fill="url(#paint0_linear)"/>
<path d="M78.803 18.2692C78.803 17.3789 78.7116 16.5078 78.5554 15.6618L81.9999 13.672C81.1657 10.5001 79.509 7.6599 77.2436 5.41659L73.7902 7.41081C72.4725 6.28178 70.9455 5.39743 69.2756 4.80787V0.823863C67.7545 0.406744 66.1612 0.167969 64.5119 0.167969C62.8625 0.167969 61.2707 0.409691 59.7482 0.823863V4.80934C58.0782 5.39891 56.5527 6.28473 55.2335 7.41228L51.7787 5.41807C49.5162 7.66137 47.8581 10.5016 47.0223 13.6735L50.4684 15.6633C50.3121 16.5108 50.2193 17.3789 50.2193 18.2706C50.2193 19.1624 50.3121 20.032 50.4684 20.878L47.0223 22.8678C47.8581 26.0397 49.5162 28.8814 51.7787 31.1232L55.2321 29.129C56.5512 30.258 58.0767 31.1424 59.7467 31.7319V35.7174C61.2692 36.1331 62.8611 36.3733 64.5104 36.3733C66.1597 36.3733 67.7545 36.1316 69.2741 35.7174V31.7319C70.944 31.1424 72.471 30.2565 73.7887 29.129L77.2421 31.1232C79.5075 28.8799 81.1642 26.0397 81.9984 22.8678L78.5539 20.878C78.7116 20.029 78.803 19.1609 78.803 18.2692ZM64.5133 24.9401C60.8285 24.9401 57.8409 21.954 57.8409 18.2706C57.8409 14.5873 60.8285 11.5997 64.5133 11.5997C68.1937 11.5997 71.1813 14.5858 71.1813 18.2692C71.1813 21.9525 68.1937 24.9401 64.5133 24.9401Z" fill="url(#paint1_linear)"/>
<defs>
<linearGradient id="paint0_linear" x1="10.5947" y1="18.1508" x2="69.8377" y2="68.5281" gradientUnits="userSpaceOnUse">
<stop offset="0.387" stop-color="#7638FF"/>
<stop offset="0.944" stop-color="#5445FF"/>
</linearGradient>
<linearGradient id="paint1_linear" x1="53.3554" y1="-3.02493" x2="89.784" y2="26.9055" gradientUnits="userSpaceOnUse">
<stop offset="0.387" stop-color="#7638FF"/>
<stop offset="0.944" stop-color="#5445FF"/>
</linearGradient>
</defs>
</svg>
