<svg width="60" height="60" viewBox="0 0 60 60" fill="none" xmlns="http://www.w3.org/2000/svg">
<path fill-rule="evenodd" clip-rule="evenodd" d="M29.3202 54.7841C29.5971 54.9288 29.9067 55.0023 30.2162 54.9999C30.5258 54.9974 30.8329 54.9214 31.1122 54.7743L40.0319 50.0062C42.5614 48.6578 44.5421 47.1501 46.0875 45.3949C49.4474 41.5705 51.2822 36.6895 51.2495 31.6566L51.1438 15.055C51.1337 13.1428 49.8778 11.4365 48.0204 10.8163L31.4268 5.24891C30.4276 4.9106 29.3328 4.91796 28.3512 5.26607L11.8206 11.032C9.97325 11.6768 8.73999 13.3953 8.75006 15.3099L8.85577 31.8993C8.88849 36.9396 10.7862 41.7985 14.2015 45.5836C15.762 47.3144 17.7604 48.8 20.3175 50.1263L29.3202 54.7841ZM26.9591 35.272C27.3316 35.6299 27.8148 35.8064 28.298 35.8015C28.7813 35.799 29.262 35.6176 29.6294 35.2548L39.3772 25.6449C40.1096 24.9217 40.102 23.7597 39.3621 23.0463C38.6196 22.3329 37.4241 22.3378 36.6917 23.061L28.2703 31.3618L24.8223 28.0474C24.0798 27.334 22.8868 27.3413 22.1519 28.0645C21.4195 28.7877 21.427 29.9497 22.1695 30.6631L26.9591 35.272Z" fill="url(#paint0_linear)"/>
<defs>
<linearGradient id="paint0_linear" x1="16.4451" y1="0.590576" x2="65.1412" y2="35.7925" gradientUnits="userSpaceOnUse">
<stop offset="0.387" stop-color="#7638FF"/>
<stop offset="0.944" stop-color="#5445FF"/>
</linearGradient>
</defs>
</svg>
